# xmcd CD database file
#
# Track frame offsets:
#	150
#	18099
#	33863
#	49469
#	67433
#	82543
#	94546
#	106923
#	127728
#	153935
#	176351
#	199572
#	211555
#	223093
#	238148
#	251291
#	270345
#	280839
#	303980
#	322025
#	334662
#
# Disc length: 4636 seconds
#
# Revision: 0
# Processed by: cddbd v1.5.2PL0 Copyright (c) Steve Scherf et al.
# Submitted via: CDex 1.51
#
DISCID=10121a15
DTITLE=Various Artist - Jazz For Dinner [CD1)
DYEAR=2006
DGENRE=Jazz
TTITLE0=Corinne Bailey Rae - Enchantment
TTITLE1=Amy Winehouse - Moody's Mood For Love
TTITLE2=Madeleine Peyroux - You're Gonna Make Me Lonesome When You Go
TTITLE3=Charlie Hunter feat. Norah Jones - Day Is Done
TTITLE4=Bobby Womack - California Dreamin'
TTITLE5=Sergio Mendes - Mas Que Nada
TTITLE6=Quincy Jones - Soul Bossa Nova
TTITLE7=US3 feat. Rahsaan and Gerard Presencer - Cantaloop (Flip Fantasia)
TTITLE8=Ramsey Lewis Trio - The 'In' Crowd
TTITLE9=Herbie Hancock - Watermelon Man
TTITLE10=Lee Morgan - The Sidewinder
TTITLE11=Bobby Troup - Route 66
TTITLE12=Julie London - Fly Me To The Moon (In Other Words)
TTITLE13=Peggy Lee - Fever
TTITLE14=Nat King Cole - Nature Boy
TTITLE15=Peter Cincotti - Sway
TTITLE16=Chet Baker - My Funny Valentine (Vocal)
TTITLE17=Curtis Stigers - Crazy
TTITLE18=Sarah Vaughan - Someone To Watch Over Me
TTITLE19=Dinah Washington - Mad About The Boy
TTITLE20=Nina Simone - Feeling Good
EXTD=YEAR: 2006
EXTT0=
EXTT1=
EXTT2=
EXTT3=
EXTT4=
EXTT5=
EXTT6=
EXTT7=
EXTT8=
EXTT9=
EXTT10=
EXTT11=
EXTT12=
EXTT13=
EXTT14=
EXTT15=
EXTT16=
EXTT17=
EXTT18=
EXTT19=
EXTT20=
PLAYORDER=
